# xmcd
#
# Track frame offsets: 
#        150
#        13395
#        27062
#        32018
#        42027
#        56051
#        69549
#        81183
#        94535
#        110500
#        121356
#        132070
#        143640
#        158991
#
# Disc length: 2301 seconds
#
# Revision: 0
# Processed by: cddbd v1.5.2PL0 Copyright (c) Steve Scherf et al.
# Submitted via: ExactAudioCopy v0.95b4
#
DISCID=b408fb0e
DTITLE=Roy Rogers - A Cowboy Has to Sing CD 02
DYEAR=2006
DGENRE=Country
TTITLE0=Along the Navajo Trail
TTITLE1=Home in Oklahoma
TTITLE2=Take Me Back to T-E-X-A-S
TTITLE3=A Gal in Calico
TTITLE4=You Can't Break my Heart
TTITLE5=A Little White Cross on the Hill
TTITLE6=I'm Restless
TTITLE7=My Heart Went That-a-Way
TTITLE8=Git Along Little Dogies
TTITLE9=My Chickashay Gal
TTITLE10=(I Got Spurs That) Jingle, Jangle, Jingle 
TTITLE11=Empty Sadles
TTITLE12=Red River Valley
TTITLE13=Carry Me Back to the Lone Prarie
EXTD=
EXTT0=
EXTT1=
EXTT2=
EXTT3=
EXTT4=
EXTT5=
EXTT6=
EXTT7=
EXTT8=
EXTT9=
EXTT10=
EXTT11=
EXTT12=
EXTT13=
PLAYORDER=
